<svg width="300" height="312" viewBox="0 0 300 312" fill="none" xmlns="http://www.w3.org/2000/svg">
<path d="M41.8379 171.332C42.5498 169.385 43.9734 160.949 45.3971 160.3C46.8207 159.651 57.4982 160.3 57.4982 160.3H65.3283C66.7519 160.3 77.4294 163.545 79.5649 163.545C81.7003 163.545 92.3778 162.247 94.5133 162.247H108.038C109.462 162.247 122.275 163.545 122.986 163.545H133.664C135.088 163.545 147.189 162.247 147.189 162.247C147.189 162.247 158.578 160.3 160.002 160.3C161.425 160.3 167.832 159.651 170.679 160.3C173.526 160.949 177.085 160.949 178.509 162.247C179.933 163.545 183.492 168.737 183.492 173.279C183.492 177.822 182.78 178.471 180.645 182.365C178.509 186.258 177.085 191.45 177.085 194.046C177.085 196.642 177.797 202.483 177.085 204.429C176.374 206.376 172.815 210.919 170.679 212.217C168.543 213.515 159.29 217.409 156.442 217.409H156.439C153.582 217.408 137.222 217.408 133.664 216.111C130.105 214.813 117.292 210.27 115.156 208.972C113.021 207.674 100.92 200.536 100.92 200.536C92.3778 195.344 87.395 192.099 83.8358 192.099C80.2767 192.099 66.7519 192.748 65.3283 192.099C63.9046 191.45 56.7863 186.258 55.3627 185.609C53.939 184.961 42.5497 183.014 41.8379 182.365C41.1261 181.716 41.126 173.279 41.8379 171.332Z" stroke="#F3F3F3" stroke-width="3.17726"/>
<path d="M41.3045 84.22L43.9135 80.4053L47.8269 79.1337L53.6971 79.7695H60.2194L66.7418 81.6768L70.6552 83.5842L77.1776 88.0348L80.4388 92.4854L83.0478 96.3001L86.9612 100.115L94.7881 103.294L103.919 106.473L118.269 111.559L131.313 115.374L140.445 117.917L148.272 119.189L155.446 122.368L156.751 126.182L160.664 131.269V136.355L162.621 141.442L161.969 147.164L156.751 150.979H147.619L137.184 149.707L126.095 150.979L117.616 152.25L103.919 154.793L88.9179 153.522H75.2209L64.1329 152.25L53.6971 149.707L47.1747 144.621L42.609 135.084L41.3045 126.182V114.102L40.0001 104.565V94.3927L41.3045 84.22Z" fill="#F3F3F3" stroke="#F3F3F3" stroke-width="1.30448"/>
<path d="M70.374 41.9722C70.374 41.9722 46.7692 42.6298 44.6864 43.9451C42.6036 45.2603 41.2151 49.2059 40.5209 51.8364C39.8266 54.4668 39.8267 59.7277 40.5209 62.3582C41.215 64.9886 46.7692 68.9343 46.7692 68.9343L51.629 71.5647C51.629 71.5647 56.4889 74.1951 59.2659 74.8528C62.0429 75.5104 68.9855 76.8256 71.0683 77.4832C73.1511 78.1408 78.7052 81.4289 78.7052 81.4289C78.7052 81.4289 81.4822 83.4017 84.9535 84.0593C88.4248 84.7169 97.4502 84.0593 97.4502 84.0593L109.253 81.4289L121.055 76.8256C121.055 76.8256 127.998 72.8799 132.857 71.5647C137.717 70.2495 146.743 68.9343 146.743 68.9343L164.793 65.6462C164.793 65.6462 177.29 62.3582 183.538 62.3582C189.787 62.3582 198.118 63.6734 198.118 63.6734H223.806H235.608C235.608 63.6734 239.774 64.331 243.939 63.6734C248.105 63.0158 250.882 61.7005 252.27 60.3853C253.659 59.0701 255.047 57.0973 255.742 55.1244C256.436 53.1516 257.13 47.8907 255.742 45.9179C254.353 43.9451 253.659 42.6298 252.27 41.9722C250.882 41.3146 246.022 39.9994 243.939 39.9994H221.723L196.035 41.9722H164.793H137.023C137.023 41.9722 129.386 39.9994 125.915 39.9994H116.195L97.4502 41.9722H78.7052H70.374Z" fill="#F3F3F3" stroke="#F3F3F3" stroke-width="1.30448"/>
<path d="M120.989 87.0941C119.033 87.7464 113.506 90.046 114.467 91.0076C115.428 91.9691 118.38 94.2687 118.38 94.2687L127.512 98.8344C127.512 98.8344 136.643 104.052 139.252 105.357C141.861 106.661 153.601 107.966 153.601 107.966L171.864 111.227L187.518 113.836H201.867C201.867 113.836 210.346 112.531 216.216 112.531C222.086 112.531 229.261 115.14 229.261 115.14L242.306 115.793C242.306 115.793 250.785 116.445 252.742 115.14C254.698 113.836 257.959 109.27 258.612 106.661C259.264 104.052 258.612 96.2255 258.612 96.2255C258.612 96.2255 257.96 85.7896 256.003 83.1807C254.046 80.5717 242.306 77.9628 242.306 77.9628C242.306 77.9628 232.522 76.0061 227.304 76.6583C222.086 77.3106 213.607 79.9195 209.694 79.9195H194.692C194.692 79.9195 183.604 79.2673 179.039 79.9195C174.473 80.5717 164.037 82.5285 164.037 82.5285L147.079 83.8329L132.73 85.7896C132.73 85.7896 122.946 86.4419 120.989 87.0941Z" stroke="#F3F3F3" stroke-width="3.17726"/>
<path d="M165.881 135.226C165.229 133.922 162.62 124.138 165.229 124.138C166.533 124.138 167.674 123.975 168.164 123.894C169.867 123.468 172.403 122.834 172.403 122.834C172.403 122.834 177.621 122.182 178.274 122.182C178.926 122.182 180.23 122.834 180.883 122.834H185.448C186.753 122.834 189.361 124.138 190.014 124.138C190.666 124.138 191.318 123.486 191.971 123.486C192.623 123.486 197.188 124.791 198.493 124.791H211.538C212.19 124.791 212.842 124.138 213.494 124.138C214.147 124.138 218.712 124.791 219.365 124.791H228.496C229.148 124.791 236.975 124.791 238.279 125.443C239.584 126.095 238.932 126.747 240.236 127.4C241.541 128.052 246.106 128.704 247.411 129.356C248.715 130.008 250.67 131.963 251.323 132.617L251.324 132.617C251.976 133.27 254.585 137.183 255.238 138.488C255.89 139.792 255.89 143.705 255.89 144.358C255.89 145.01 255.238 146.314 255.238 146.967C255.238 147.619 255.89 152.185 255.89 152.185C255.89 152.185 256.542 156.098 256.542 156.75C256.542 157.402 256.542 158.055 255.89 158.707C255.238 159.359 253.933 160.011 253.281 160.011C252.629 160.011 244.802 158.055 244.149 157.402L244.149 157.402C243.497 156.75 241.54 154.794 240.236 154.141C238.932 153.489 236.975 153.489 236.975 153.489H233.714C231.757 153.489 231.105 154.141 230.452 154.141C229.8 154.141 218.06 152.837 218.06 152.837L206.32 150.88L188.709 149.576C188.709 149.576 176.317 148.271 175.012 147.619C173.708 146.967 166.533 136.531 165.881 135.226Z" fill="#F3F3F3"/>
<path d="M165.229 124.138C162.62 124.138 165.229 133.922 165.881 135.226C166.533 136.531 173.708 146.967 175.012 147.619C176.317 148.271 188.709 149.576 188.709 149.576L206.32 150.88L218.06 152.837C218.06 152.837 229.8 154.141 230.452 154.141C231.105 154.141 231.757 153.489 233.714 153.489C235.671 153.489 236.975 153.489 236.975 153.489C236.975 153.489 238.932 153.489 240.236 154.141C241.541 154.794 243.497 156.75 244.149 157.402C244.802 158.055 252.629 160.011 253.281 160.011C253.933 160.011 255.238 159.359 255.89 158.707C256.542 158.055 256.542 157.402 256.542 156.75C256.542 156.098 255.89 152.185 255.89 152.185C255.89 152.185 255.238 147.619 255.238 146.967C255.238 146.314 255.89 145.01 255.89 144.358C255.89 143.705 255.89 139.792 255.238 138.488C254.585 137.183 251.976 133.27 251.324 132.617C250.672 131.965 248.715 130.008 247.411 129.356C246.106 128.704 241.541 128.052 240.236 127.4C238.932 126.747 239.584 126.095 238.279 125.443C236.975 124.791 229.148 124.791 228.496 124.791C227.844 124.791 220.017 124.791 219.365 124.791C218.712 124.791 214.147 124.138 213.494 124.138C212.842 124.138 212.19 124.791 211.538 124.791C210.885 124.791 199.797 124.791 198.493 124.791C197.188 124.791 192.623 123.486 191.971 123.486C191.318 123.486 190.666 124.138 190.014 124.138C189.361 124.138 186.753 122.834 185.448 122.834C184.144 122.834 181.535 122.834 180.883 122.834C180.23 122.834 178.926 122.182 178.274 122.182C177.621 122.182 172.403 122.834 172.403 122.834C172.403 122.834 164.576 124.791 167.186 124.138C169.795 123.486 167.838 124.138 165.229 124.138Z" stroke="#F3F3F3" stroke-width="1.30448"/>
<path d="M172.694 265.022C172.042 265.022 163.563 266.979 162.911 266.979C162.258 266.979 160.954 264.37 160.954 264.37L157.693 258.5C157.693 258.5 157.04 257.195 156.388 254.586C155.736 251.977 156.388 244.15 156.388 244.15C156.388 244.15 157.04 238.28 158.997 236.323C160.954 234.367 163.563 232.41 164.867 231.758C166.172 231.106 174.651 227.844 174.651 227.844C174.651 227.844 181.173 225.235 182.478 223.931C183.782 222.626 183.782 215.452 185.087 213.495C186.391 211.538 189.652 204.364 189.652 201.103C189.652 197.841 189 185.449 189.652 183.492L190.957 179.579C190.957 179.579 191.609 176.318 191.609 175.013C191.609 173.709 190.957 171.1 191.609 169.795C192.261 168.491 198.131 163.273 198.131 163.273C198.784 162.621 201.393 161.316 203.349 160.664C205.306 160.012 219.003 160.664 219.003 160.664C219.003 160.664 224.873 160.012 226.83 160.012C228.787 160.012 230.743 161.968 232.7 161.968C234.657 161.968 240.527 162.621 241.831 163.273L247.049 165.882C248.354 166.534 250.31 168.491 250.963 169.143L250.963 169.143C251.615 169.795 251.615 171.752 251.615 173.056C251.615 174.361 250.963 182.84 252.919 185.449C254.876 188.058 258.137 191.971 258.137 191.971L259.442 193.928C260.746 195.885 259.442 198.494 258.79 199.798C258.137 201.103 258.137 206.32 258.137 206.32V216.104C258.137 218.713 256.833 222.626 256.833 223.931V232.41C256.833 234.367 255.528 237.628 255.528 240.237C255.528 242.846 256.833 248.716 256.833 250.02C256.833 251.325 256.181 255.238 255.528 255.891C254.876 256.543 250.963 261.108 250.963 261.108C250.963 261.108 249.658 262.413 247.702 263.065C245.745 263.717 243.788 263.717 243.136 263.717H234.005L222.916 263.065L189.652 265.022H172.694Z" fill="#F3F3F3"/>
<path d="M194.87 166.534L198.131 163.273M198.131 163.273C198.784 162.621 201.393 161.316 203.349 160.664C205.306 160.012 219.003 160.664 219.003 160.664C219.003 160.664 224.873 160.012 226.83 160.012C228.787 160.012 230.743 161.968 232.7 161.968C234.657 161.968 240.527 162.621 241.831 163.273C243.136 163.925 245.745 165.23 247.049 165.882C248.354 166.534 250.31 168.491 250.963 169.143C251.615 169.795 251.615 171.752 251.615 173.056C251.615 174.361 250.963 182.84 252.919 185.449C254.876 188.058 258.137 191.971 258.137 191.971C258.137 191.971 258.137 191.971 259.442 193.928C260.746 195.885 259.442 198.494 258.79 199.798C258.137 201.103 258.137 206.32 258.137 206.32C258.137 206.32 258.137 213.495 258.137 216.104C258.137 218.713 256.833 222.626 256.833 223.931C256.833 225.235 256.833 230.453 256.833 232.41C256.833 234.367 255.528 237.628 255.528 240.237C255.528 242.846 256.833 248.716 256.833 250.02C256.833 251.325 256.181 255.238 255.528 255.891C254.876 256.543 250.963 261.108 250.963 261.108C250.963 261.108 249.658 262.413 247.702 263.065C245.745 263.717 243.788 263.717 243.136 263.717C242.484 263.717 234.005 263.717 234.005 263.717L222.916 263.065L189.652 265.022C189.652 265.022 173.346 265.022 172.694 265.022C172.042 265.022 163.563 266.979 162.911 266.979C162.258 266.979 160.954 264.37 160.954 264.37L157.693 258.5C157.693 258.5 157.04 257.195 156.388 254.586C155.736 251.977 156.388 244.15 156.388 244.15C156.388 244.15 157.04 238.28 158.997 236.323C160.954 234.367 163.563 232.41 164.867 231.758C166.172 231.106 174.651 227.844 174.651 227.844C174.651 227.844 181.173 225.235 182.478 223.931C183.782 222.626 183.782 215.452 185.087 213.495C186.391 211.538 189.652 204.364 189.652 201.103C189.652 197.841 189 185.449 189.652 183.492C190.305 181.535 190.957 179.579 190.957 179.579C190.957 179.579 191.609 176.318 191.609 175.013C191.609 173.709 190.957 171.1 191.609 169.795C192.261 168.491 198.131 163.273 198.131 163.273Z" stroke="#F3F3F3" stroke-width="1.30448"/>
<path d="M42.6174 265.674C41.9652 265.021 41.1854 199.531 41.3191 199.145C41.4529 198.76 41.6564 198.628 41.9714 198.493C43.4992 198.682 44.3576 198.848 45.8848 198.493C47.1591 197.828 47.8415 196.536 48.4938 196.536C49.146 196.536 51.7549 198.493 51.7549 198.493L55.0161 201.754C55.6684 202.407 59.5818 203.711 60.234 203.711C60.8863 203.711 66.7564 205.015 66.7564 205.015L72.6266 205.668H79.8012C80.4534 205.668 82.4101 203.711 83.0624 203.711H87.628C87.628 203.711 92.1937 203.059 93.4982 203.711C94.8027 204.363 107.847 214.799 107.847 214.799L119.588 221.321L140.459 233.714C140.459 233.714 147.634 237.627 148.286 238.28C148.938 238.932 150.243 246.106 150.243 246.759V257.847C150.243 258.499 146.329 265.674 145.677 265.674C145.025 265.674 116.327 267.63 116.327 267.63C116.327 267.63 74.5833 272.196 73.931 272.196C73.2788 272.196 43.2696 266.326 42.6174 265.674Z" fill="#F3F3F3" stroke="#F3F3F3" stroke-width="1.30448"/>
</svg>
