<svg width="79" height="18" viewBox="0 0 79 18" fill="none" xmlns="http://www.w3.org/2000/svg">
<path d="M2.88 7.896L5.928 8.688V16.56C5.928 16.896 5.76 17.224 5.424 17.544C5.088 17.848 4.744 18 4.392 18H0.96V16.368H4.296L3.72 9.936L0.96 9.216V2.088C0.96 1.832 1.056 1.584 1.248 1.344C1.456 1.088 1.68 0.959999 1.92 0.959999H5.928V2.136L2.52 2.592L2.88 7.896ZM12.7706 1.296L12.8906 2.808H10.7786V18H8.73863L9.21863 3.24L7.49063 2.664L7.80263 0.959999L12.7706 1.296ZM15.732 0.959999H18.972L19.932 1.632V17.136L18.42 18H16.116L14.7 16.992V1.728L15.732 0.959999ZM18.324 2.424C18.324 2.28 18.252 2.208 18.108 2.208H16.86C16.716 2.208 16.644 2.28 16.644 2.424V16.176C16.644 16.272 16.716 16.32 16.86 16.32H17.868C18.012 16.32 18.084 16.272 18.084 16.176L18.324 2.424ZM28.5806 18H25.8206L23.3726 2.376H23.2766V18H21.8606V0.959999H24.6446L26.8046 16.608H26.9006L27.4286 0.959999H28.8206L28.5806 18ZM35.8466 18H30.7106V0.959999H35.8466V2.448L32.8466 2.304V7.752L35.8466 8.304V9.456L32.4386 9.312V16.2L35.8466 16.008V18ZM42.9701 1.512C42.9701 1.352 43.2661 1.224 43.8581 1.128C44.4501 1.016 45.0261 0.959999 45.5861 0.959999H46.6181C46.8261 0.959999 47.0181 1.008 47.1941 1.104C47.3861 1.184 47.4821 1.304 47.4821 1.464L47.7461 8.904L46.9061 10.392L44.2661 10.656L44.0741 18H42.4181L42.9701 1.512ZM45.9701 8.76C46.0661 8.76 46.1141 8.712 46.1141 8.616V2.4L45.7541 2.04L44.4101 2.208V8.832L45.9701 8.76ZM54.6819 18H53.2899L52.6659 11.328H51.4419L50.3379 18H49.2099L50.2899 0.959999H54.6819V18ZM53.1699 1.872C53.1699 1.776 53.1219 1.728 53.0259 1.728H51.9939C51.8979 1.728 51.8499 1.776 51.8499 1.872V10.08C51.8499 10.16 51.8979 10.2 51.9939 10.2H53.0259C53.1219 10.2 53.1699 10.152 53.1699 10.056V1.872ZM60.051 0.959999C60.659 0.959999 61.171 1.08 61.587 1.32C62.003 1.544 62.211 1.816 62.211 2.136V8.904C62.211 9.08 62.147 9.304 62.019 9.576C61.907 9.832 61.667 10.08 61.299 10.32C60.931 10.544 60.411 10.656 59.739 10.656H58.467V18H57.075V1.944L56.547 1.656V0.959999H60.051ZM58.803 9.048C58.803 9.096 58.827 9.144 58.875 9.192C58.939 9.224 59.011 9.24 59.091 9.24L60.123 9C60.219 9 60.267 8.952 60.267 8.856L60.507 2.808C60.491 2.6 60.403 2.424 60.243 2.28C60.083 2.12 59.835 2.04 59.499 2.04H59.091C58.899 2.04 58.803 2.096 58.803 2.208V9.048ZM69.6201 18H64.4841V0.959999H69.6201V2.448L66.6201 2.304V7.752L69.6201 8.304V9.456L66.2121 9.312V16.2L69.6201 16.008V18ZM72.2859 1.224C72.2859 1.144 72.6139 1.08 73.2699 1.032C73.9259 0.983999 74.5739 0.959999 75.2139 0.959999H76.2459C76.5019 0.959999 76.7099 1.056 76.8699 1.248C77.0299 1.44 77.1179 1.688 77.1339 1.992L77.3739 8.904L76.2939 10.32L78.2139 17.472L77.7579 18H76.3419L75.1179 10.536L73.8939 10.656L73.3899 18H72.2859V1.224ZM75.5979 8.76C75.6939 8.76 75.7419 8.712 75.7419 8.616V2.64L75.3819 2.28L73.7259 2.448L73.7979 8.856L75.5979 8.76Z" fill="#F3F3F3"/>
</svg>
