<svg width="18" height="18" viewBox="0 0 18 18" fill="none" xmlns="http://www.w3.org/2000/svg">
<path fill-rule="evenodd" clip-rule="evenodd" d="M1.87447 7.92426C1.61628 6.11696 3.01867 4.5 4.84431 4.5H13.1558C14.9814 4.5 16.3838 6.11696 16.1256 7.92426L15.3605 13.2803C15.0965 15.1278 13.5143 16.5 11.6482 16.5H6.35193C4.48574 16.5 2.90354 15.1278 2.63962 13.2803L1.87447 7.92426ZM4.84431 6C3.93149 6 3.2303 6.80848 3.35939 7.71213L4.12454 13.0682C4.28289 14.1767 5.23221 15 6.35193 15H11.6482C12.7679 15 13.7172 14.1767 13.8755 13.0682L14.6407 7.71213C14.7698 6.80848 14.0686 6 13.1558 6H4.84431Z" fill="#141414"/>
<path fill-rule="evenodd" clip-rule="evenodd" d="M7.08537 1.57931C7.45585 1.76455 7.60602 2.21505 7.42078 2.58554L6.07914 5.26882C5.8939 5.6393 5.44339 5.78947 5.07291 5.60423C4.70243 5.41899 4.55226 4.96848 4.7375 4.598L6.07914 1.91472C6.26438 1.54423 6.71489 1.39406 7.08537 1.57931Z" fill="#141414"/>
<path fill-rule="evenodd" clip-rule="evenodd" d="M10.9145 1.57914C11.285 1.3939 11.7355 1.54407 11.9207 1.91455L13.2623 4.59783C13.4476 4.96832 13.2974 5.41882 12.9269 5.60406C12.5564 5.7893 12.1059 5.63914 11.9207 5.26865L10.5791 2.58537C10.3938 2.21489 10.544 1.76438 10.9145 1.57914Z" fill="#141414"/>
</svg>
