<svg width="18" height="18" viewBox="0 0 18 18" fill="none" xmlns="http://www.w3.org/2000/svg">
<path fill-rule="evenodd" clip-rule="evenodd" d="M4.8448 4.5C3.01916 4.5 1.61677 6.11696 1.87495 7.92426L2.64011 13.2803C2.90403 15.1278 4.48623 16.5 6.35242 16.5H11.6486C13.5148 16.5 15.097 15.1278 15.361 13.2803L16.1261 7.92426C16.3843 6.11696 14.9819 4.5 13.1563 4.5H4.8448Z" fill="#FA4616"/>
<path fill-rule="evenodd" clip-rule="evenodd" d="M5.25028 3.57272C5.88553 2.30222 7.18394 1.5 8.60427 1.5H9.39607C10.8165 1.5 12.115 2.30252 12.7502 3.57297L13.421 4.91459C13.6062 5.28508 13.4561 5.73558 13.0856 5.92082C12.7151 6.10606 12.2646 5.95589 12.0793 5.58541L11.4085 4.24378C11.0274 3.48151 10.2483 3 9.39607 3H8.60427C7.75196 3 6.97302 3.48134 6.59192 4.24354L5.92098 5.58541C5.73574 5.95589 5.28524 6.10606 4.91475 5.92082C4.54427 5.73558 4.3941 5.28507 4.57934 4.91459L5.25028 3.57272Z" fill="#FA4616"/>
</svg>
