<svg width="24" height="24" viewBox="0 0 24 24" fill="none" xmlns="http://www.w3.org/2000/svg">
<g clip-path="url(#clip0_742_1441)">
<path d="M15.905 6.00129C15.145 6.00116 14.4153 6.29941 13.8729 6.83185C13.3305 7.3643 13.0189 8.08838 13.005 8.84829L12.977 10.4233C12.9754 10.5079 12.9559 10.5911 12.9198 10.6676C12.8837 10.7441 12.8319 10.8121 12.7676 10.8672C12.7034 10.9222 12.6283 10.9631 12.5472 10.987C12.4661 11.011 12.3808 11.0176 12.297 11.0063L10.736 10.7943C8.682 10.5143 6.714 9.56829 4.826 7.99529C4.228 11.3053 5.396 13.5983 8.209 15.3673L9.956 16.4653C10.039 16.5175 10.108 16.5892 10.1568 16.6741C10.2057 16.7591 10.233 16.8548 10.2364 16.9528C10.2397 17.0507 10.219 17.1481 10.1761 17.2362C10.1331 17.3243 10.0692 17.4006 9.99 17.4583L8.398 18.6213C9.345 18.6803 10.244 18.6383 10.99 18.4903C15.708 17.5483 18.845 13.9983 18.845 8.14229C18.845 7.66429 17.833 6.00129 15.905 6.00129V6.00129ZM11.005 8.81129C11.0225 7.84734 11.3239 6.90996 11.8716 6.11651C12.4192 5.32306 13.1888 4.70881 14.0839 4.35065C14.979 3.9925 15.9599 3.90637 16.9037 4.10303C17.8476 4.2997 18.7124 4.77043 19.39 5.45629C20.101 5.45129 20.706 5.63129 22.059 4.81129C21.724 6.45129 21.559 7.16329 20.845 8.14229C20.845 15.7843 16.148 19.5003 11.382 20.4513C8.114 21.1033 3.362 20.0323 2 18.6103C2.694 18.5563 5.514 18.2533 7.144 17.0603C5.765 16.1513 0.276 12.9213 3.883 4.23729C5.576 6.21429 7.293 7.56029 9.033 8.27429C10.191 8.74929 10.475 8.73929 11.006 8.81229L11.005 8.81129Z" fill="white"/>
</g>
<defs>
<clipPath id="clip0_742_1441">
<rect width="24" height="24" fill="white"/>
</clipPath>
</defs>
</svg>
