<svg width="16" height="16" viewBox="0 0 16 16" fill="none" xmlns="http://www.w3.org/2000/svg">
<path fill-rule="evenodd" clip-rule="evenodd" d="M3.22222 3C1.99492 3 1 4.02335 1 5.28571V11.381C1 12.6433 1.99492 13.6667 3.22222 13.6667H12.1111C13.3384 13.6667 14.3333 12.6433 14.3333 11.381V5.28571C14.3333 4.02335 13.3384 3 12.1111 3H3.22222ZM4.7498 5.81275C4.46229 5.58275 4.04276 5.62936 3.81275 5.91687C3.58275 6.20438 3.62936 6.62391 3.91687 6.85391L7.2502 9.52058L7.66667 9.85375L8.08313 9.52058L11.4165 6.85391C11.704 6.62391 11.7506 6.20438 11.5206 5.91687C11.2906 5.62936 10.871 5.58275 10.5835 5.81275L7.66667 8.14625L4.7498 5.81275Z" fill="white"/>
</svg>
