<svg width="16" height="16" viewBox="0 0 16 16" fill="none" xmlns="http://www.w3.org/2000/svg">
<path fill-rule="evenodd" clip-rule="evenodd" d="M7.67267 4.25247C7.22016 2.6175 5.59106 1.60766 3.97893 2.14539C2.9286 2.4957 2.28922 3.14926 2.07727 4.02099C1.88026 4.83125 2.0856 5.70565 2.40451 6.47838C3.04673 8.03449 4.3178 9.57617 5.03746 10.2964C5.74054 11 7.27999 12.2766 8.83903 12.9246C9.61311 13.2464 10.4908 13.4554 11.3048 13.2588C12.1808 13.0473 12.8376 12.4046 13.1899 11.3469C13.7268 9.73486 12.7188 8.1045 11.0842 7.65141L11.0842 7.6514C9.96687 7.34171 8.79514 7.63701 7.99549 8.35472C7.80779 8.20937 7.62727 8.05061 7.45511 7.87832C7.28211 7.70519 7.12276 7.52358 6.97691 7.33471C7.68899 6.53477 7.98101 5.36657 7.67267 4.25247L7.67267 4.25247Z" fill="white"/>
</svg>
