<svg width="18" height="18" viewBox="0 0 18 18" fill="none" xmlns="http://www.w3.org/2000/svg">
<path fill-rule="evenodd" clip-rule="evenodd" d="M9 1.5C6.92893 1.5 5.25 3.17893 5.25 5.25C5.25 7.32107 6.92893 9 9 9C11.0711 9 12.75 7.32107 12.75 5.25C12.75 3.17893 11.0711 1.5 9 1.5Z" fill="#FA4616"/>
<path fill-rule="evenodd" clip-rule="evenodd" d="M6.74969 9.75C5.50263 9.75 4.30337 10.3189 3.60056 11.1753C3.24386 11.61 2.9931 12.1478 2.97127 12.744C2.94897 13.3527 3.16871 13.9469 3.62188 14.4653C4.7263 15.7287 6.48965 16.5 8.99969 16.5C11.5097 16.5 13.2731 15.7287 14.3775 14.4653C14.8307 13.9469 15.0504 13.3527 15.0281 12.744C15.0063 12.1478 14.7555 11.61 14.3988 11.1753C13.696 10.3189 12.4968 9.75 11.2497 9.75H6.74969Z" fill="#FA4616"/>
</svg>
