<svg width="18" height="18" viewBox="0 0 18 18" fill="none" xmlns="http://www.w3.org/2000/svg">
<path fill-rule="evenodd" clip-rule="evenodd" d="M9 3C7.75736 3 6.75 4.00736 6.75 5.25C6.75 6.49264 7.75736 7.5 9 7.5C10.2426 7.5 11.25 6.49264 11.25 5.25C11.25 4.00736 10.2426 3 9 3ZM5.25 5.25C5.25 3.17893 6.92893 1.5 9 1.5C11.0711 1.5 12.75 3.17893 12.75 5.25C12.75 7.32107 11.0711 9 9 9C6.92893 9 5.25 7.32107 5.25 5.25Z" fill="#141414"/>
<path fill-rule="evenodd" clip-rule="evenodd" d="M8.99994 15C6.8033 15 5.50091 14.3354 4.75147 13.4781C4.52312 13.2169 4.46361 12.9873 4.47051 12.7989C4.47787 12.5979 4.56476 12.3652 4.76035 12.1269C5.1621 11.6373 5.92593 11.25 6.74994 11.25H11.2499C12.0739 11.25 12.8378 11.6373 13.2395 12.1269C13.4351 12.3652 13.522 12.5979 13.5294 12.7989C13.5363 12.9873 13.4768 13.2169 13.2484 13.4781C12.499 14.3354 11.1966 15 8.99994 15ZM3.62212 14.4653C4.72655 15.7287 6.48989 16.5 8.99994 16.5C11.51 16.5 13.2733 15.7287 14.3778 14.4653C14.8309 13.9469 15.0507 13.3527 15.0284 12.744C15.0065 12.1478 14.7558 11.61 14.3991 11.1753C13.6963 10.3189 12.497 9.75 11.2499 9.75H6.74994C5.50288 9.75 4.30361 10.3189 3.6008 11.1753C3.2441 11.61 2.99335 12.1478 2.97151 12.744C2.94921 13.3527 3.16896 13.9469 3.62212 14.4653Z" fill="#141414"/>
</svg>
