<svg width="408" height="254" viewBox="0 0 408 254" fill="none" xmlns="http://www.w3.org/2000/svg">
<rect x="258.412" y="65.0104" width="155.099" height="44.5039" transform="rotate(0.435987 258.412 65.0104)" fill="#F3F3F3"/>
<rect x="258.412" y="65.0104" width="155.099" height="44.5039" transform="rotate(0.435987 258.412 65.0104)" stroke="#141414"/>
<rect x="186.594" y="151.83" width="81.0219" height="17.3987" transform="rotate(-43.2259 186.594 151.83)" fill="#F3F3F3"/>
<rect x="186.594" y="151.83" width="81.0219" height="17.3987" transform="rotate(-43.2259 186.594 151.83)" stroke="#141414"/>
<rect x="112.218" y="101.551" width="51.1013" height="18.9219" transform="rotate(3.87069 112.218 101.551)" fill="#F3F3F3"/>
<rect x="112.218" y="101.551" width="51.1013" height="18.9219" transform="rotate(3.87069 112.218 101.551)" stroke="#141414"/>
<rect x="120.038" y="197.888" width="38.4193" height="13.4297" transform="rotate(-53.3958 120.038 197.888)" fill="#F3F3F3"/>
<rect x="120.038" y="197.888" width="38.4193" height="13.4297" transform="rotate(-53.3958 120.038 197.888)" stroke="#141414"/>
<rect x="50.2029" y="100.472" width="62.5029" height="13.4297" transform="rotate(0.527497 50.2029 100.472)" fill="#F3F3F3"/>
<rect x="50.2029" y="100.472" width="62.5029" height="13.4297" transform="rotate(0.527497 50.2029 100.472)" stroke="#141414"/>
<rect x="167.874" y="183.276" width="35.8924" height="17.3987" transform="rotate(-59.2462 167.874 183.276)" fill="#F3F3F3"/>
<rect x="167.874" y="183.276" width="35.8924" height="17.3987" transform="rotate(-59.2462 167.874 183.276)" stroke="#141414"/>
<rect x="155.322" y="105.755" width="111.951" height="44.5039" transform="rotate(-21.6792 155.322 105.755)" fill="#F3F3F3"/>
<rect x="155.322" y="105.755" width="111.951" height="44.5039" transform="rotate(-21.6792 155.322 105.755)" stroke="#141414"/>
<rect x="142.779" y="166.902" width="45.116" height="17.3987" transform="rotate(-53.1766 142.779 166.902)" fill="#F3F3F3"/>
<rect x="142.779" y="166.902" width="45.116" height="17.3987" transform="rotate(-53.1766 142.779 166.902)" stroke="#141414"/>
<rect x="104.451" y="112.868" width="56.4434" height="18.9219" transform="rotate(-6.55248 104.451 112.868)" fill="#F3F3F3"/>
<rect x="104.451" y="112.868" width="56.4434" height="18.9219" transform="rotate(-6.55248 104.451 112.868)" stroke="#141414"/>
<rect x="43.724" y="125.064" width="61.1748" height="13.4297" transform="rotate(-10.6591 43.724 125.064)" fill="#F3F3F3"/>
<rect x="43.724" y="125.064" width="61.1748" height="13.4297" transform="rotate(-10.6591 43.724 125.064)" stroke="#141414"/>
<rect x="112.583" y="126.742" width="56.4434" height="18.9219" transform="rotate(-6.55248 112.583 126.742)" fill="#F3F3F3"/>
<rect x="112.583" y="126.742" width="56.4434" height="18.9219" transform="rotate(-6.55248 112.583 126.742)" stroke="#141414"/>
<rect x="61.7645" y="136.314" width="52.4157" height="13.4297" transform="rotate(-10.6591 61.7645 136.314)" fill="#F3F3F3"/>
<rect x="61.7645" y="136.314" width="52.4157" height="13.4297" transform="rotate(-10.6591 61.7645 136.314)" stroke="#141414"/>
</svg>
